<mxfile host="app.diagrams.net" modified="2022-08-29T06:22:51.010Z" agent="5.0 (Macintosh)" etag="fToapzGPjhA4urc4Qo1u" version="20.2.6" type="github">
  <diagram id="apsN_KvRL7DqiduPsxGz" name="第 1 页">
    <mxGraphModel dx="1127" dy="667" grid="1" gridSize="10" guides="1" tooltips="1" connect="1" arrows="1" fold="1" page="1" pageScale="1" pageWidth="827" pageHeight="1169" math="0" shadow="0">
      <root>
        <mxCell id="0" />
        <mxCell id="1" parent="0" />
        <mxCell id="JRrZdXnegzeVLyWCqKI3-1" value="&lt;div&gt;路段划分&lt;/div&gt;" style="rounded=0;whiteSpace=wrap;html=1;" vertex="1" parent="1">
          <mxGeometry x="354" y="180" width="120" height="60" as="geometry" />
        </mxCell>
        <mxCell id="JRrZdXnegzeVLyWCqKI3-2" value="选定起点" style="rounded=0;whiteSpace=wrap;html=1;" vertex="1" parent="1">
          <mxGeometry x="354" y="290" width="120" height="60" as="geometry" />
        </mxCell>
        <mxCell id="JRrZdXnegzeVLyWCqKI3-3" value="选定起点" style="rounded=0;whiteSpace=wrap;html=1;" vertex="1" parent="1">
          <mxGeometry x="354" y="390" width="120" height="60" as="geometry" />
        </mxCell>
      </root>
    </mxGraphModel>
  </diagram>
</mxfile>
